<svg id="Layer_1" data-name="Layer 1" xmlns="http://www.w3.org/2000/svg" viewBox="0 0 150 150"><defs><style>.cls-1{fill:#fff;}</style></defs><title>media-icon_1</title><path class="cls-1" d="M0,58.38v69H110.8v-69Zm103.16,61.2H91.35v-.21a20.66,20.66,0,0,0-3-10.67V80a2.25,2.25,0,0,0-3.55-1.88L63.7,93.6a50.72,50.72,0,0,0-8.28-.7,52.19,52.19,0,0,0-7.38.55L29.87,78.51a2.24,2.24,0,0,0-3.65,1.81v23.6a22.05,22.05,0,0,0-6.77,15.45v.21H7.66V66.22h95.5Z"/><path class="cls-1" d="M134.46,22.59c-1.18,3.5-8.41,8.47-8.86,8.77l3.86-8.77H39.94V48.41h27V29.76h55.4V51.29q3.81-5.1,7.64-10.72V30.44h6.65c1.7-2.65,3.33-5.29,4.86-7.85Zm-75.22,18H47.59V30.44H59.24Zm82,8.87A128.55,128.55,0,0,0,150,34V25.25a93.94,93.94,0,0,1-7.66,10v7h-6.69a141.73,141.73,0,0,1-13.36,11.41V88.81H150V44.66c-2.66,2.12-5.45,4.19-7.66,5.77V62H129.93V49.44Zm1.07,19.68V81H129.93V69.12Z"/></svg>