<svg width="139" height="79" viewBox="0 0 139 79" fill="none" xmlns="http://www.w3.org/2000/svg">
<g clip-path="url(#clip0_5_2)">
<path d="M65.4 39.9C65.3 40.1 65.1 40.3 64.9 40.5L65.4 39.9Z" fill="url(#paint0_linear_5_2)"/>
<path d="M116.4 6.30002L113.2 39.5L106 28.7H96.5L96.1 41.3L86.1 23.6C85 26.5 83.1 30.8 81.7 34H74C73 31.7 70.4 25.5 69.4 23C69.5 25 62.4 38.5 62.4 38.5L60.6 6.30002H69.5C71.5 10.8 76.1 21.3 77.9 25.8C79.5 21.1 84.3 11.1 86.2 6.30002H96.6V21.5H106.1V6.30002H116.4Z" fill="#0A0400"/>
<path d="M116.8 0.700012L101.6 4.10001L86.5 0.700012C86.5 0.700012 80.2 9.00001 78.1 12.3C76.2 9.30001 69.8 0.700012 69.8 0.700012L57.3 2.30001L57.7 38.2L62.7 42.9L64.9 40.5L65.4 39.9L69.6 35.3L82 38.4L87.1 34.3L92.2 43.2L95 42.5L99.7 41.3L101.5 40.8L101.7 33.1H103.7L109.5 41.7L112.3 41L116.8 39.9L118.7 39.4L121.9 6.40001L116.8 0.700012ZM113.3 39.5L106 28.7H96.5L96.1 41.3L86.1 23.6C85 26.5 83.1 30.8 81.7 34H74C73 31.7 70.4 25.5 69.4 23C69.5 25 62.4 38.5 62.4 38.5L60.6 6.30001H69.5C71.5 10.8 76.1 21.3 77.9 25.8C79.5 21.1 84.3 11.1 86.2 6.30001H96.6V21.5H106.1V6.30001H116.5L113.3 39.5Z" fill="url(#paint1_linear_5_2)"/>
<path d="M20.1 53.7C19.2 53.7 18.2 53.5 17.1 53.1C15.1 52.3 12.9 51.5 10.8 50.6L9 49.9C5.4 48.5 3.9 45.5 4.8 41.8C5 40.9 5.3 39.9 5.5 38.9C5.9 36.9 6.4 34.8 7.1 32.8C8.6 28.8 11.4 28.2 12.9 28.2C13.8 28.2 14.7 28.4 15.7 28.8C17.2 29.3 18.8 29.9 20.4 30.5C22 31.1 23.5 31.6 24.9 32.1C28.9 33.6 30.6 37.1 29.3 41C28.4 43.7 27.1 46.5 25.9 49L25.5 49.8C24.1 53.2 21.5 53.7 20.1 53.7Z" fill="#0A0400"/>
<path d="M13 31.8C13.5 31.8 14 31.9 14.6 32.1C17.5 33.2 21 34.4 23.9 35.4C26.1 36.2 26.8 37.8 26.1 39.9C25.2 42.7 23.7 45.7 22.5 48.3C21.9 49.6 21.1 50.1 20.1 50.1C19.6 50.1 19 50 18.3 49.7C15.7 48.7 12.8 47.6 10.3 46.6C8.4 45.8 7.7 44.7 8.2 42.7C9 40 9.4 36.7 10.4 34C11 32.5 11.8 31.8 13 31.8ZM13 24.8C8.9 24.8 5.4 27.4 3.9 31.7C3.1 33.9 2.6 36.2 2.1 38.2C1.9 39.2 1.7 40.1 1.5 41C-1.43051e-06 46.3 2.4 51 7.7 53.1L9.5 53.8C11.6 54.6 13.8 55.5 15.9 56.3C17.4 56.9 18.8 57.2 20.2 57.2C22 57.2 26.4 56.6 28.9 51.4L29.3 50.6C30.5 48 31.9 45.1 32.9 42.2C34.8 36.5 32.1 31 26.4 28.9C25 28.4 23.4 27.8 21.8 27.3C20.2 26.7 18.5 26.2 17.1 25.6C15.6 25 14.3 24.8 13 24.8Z" fill="url(#paint2_linear_5_2)"/>
<path d="M34.4 72C33.3 72 32.3 71.7 31.3 71.2L27.9 69.4L27.8 69.8L24.4 67.6L24.3 67.5L24.1 67.3C21.2 65.4 20.3 61.7 21.9 58.7L33.7 36.3L10.4 24.2C7.3 22.5 6 18.7 7.5 15.5L9.4 11.4L9.2 11.3L11.3 7.19999C12.4 4.89999 14.8 3.39999 17.3 3.39999C18.8 3.39999 20.3 3.89999 21.4 4.79999L49 26.6C51.2 28.3 52.1 31.2 51.2 33.8L43.2 60.8L43 60.4L40.8 67.4C39.9 70.1 37.3 72 34.4 72Z" fill="#0A0400"/>
<path d="M17.3 7C18 7 18.7 7.2 19.3 7.7L46.9 29.5C47.9 30.3 48.4 31.7 48 32.9C46.2 39.1 44.3 45.4 42.5 51.6C41.9 50.3 41.1 49.8 40.5 49.5C39.4 49 37.6 49 37.6 49C38.2 49.4 39.6 50.4 40.4 52.2C40.9 53.2 41 54.2 41.1 54.8C39.9 58.6 38.7 62.4 37.5 66.2C37.1 67.6 35.8 68.4 34.5 68.4C34 68.4 33.5 68.3 33 68L27.7 65.2C27.6 63.7 27.5 62.2 27.3 60.7C26.9 61.9 26.4 63.1 26 64.3C24.7 63.4 24.2 61.7 25 60.2L36.9 37.5C37.7 36 37.1 34 35.6 33.2L12.1 21.1C10.6 20.3 10 18.5 10.7 17L13.5 11.1C13.7 11.1 14 11 14.4 11C15 11 15.7 11.1 16.5 11.4C17.1 11.6 17.5 11.9 17.8 12.1C17.8 11.8 17.7 11.4 17.5 11.1C16.7 9.5 14.9 9.1 14.5 9V8.9C15 7.7 16.2 7 17.3 7ZM14.1 0C10.6 0 7.4 1.8 5.5 4.6H5.4L4.8 5.7L0.999999 13.8V14C-1.3 18.9 0.699999 24.8 5.5 27.3L25.7 37.9L15.5 57.1C13.3 61.3 14.3 66.3 17.7 69.4V69.8L19.4 70.7L26.7 74.5C28.1 75.2 29.7 75.6 31.3 75.6C35.4 75.6 39 73.2 40.7 69.5L46.2 53.7L48.4 46.3L51.7 35C52.9 31 51.6 26.6 48.3 24L20.4 2.2C18.6 0.8 16.4 0 14.1 0Z" fill="url(#paint3_linear_5_2)"/>
<path d="M128.7 65.7L131.9 60.5L138.4 65L128.7 65.7Z" fill="url(#paint4_linear_5_2)"/>
<path d="M118.5 67.1L120.6 62.6L128.7 65.7L118.5 67.1Z" fill="url(#paint5_linear_5_2)"/>
<path d="M55.4 48.5L61.5 51L64.8 47.5L72.3 48.8L75.2 45.6L55.4 48.5Z" fill="url(#paint6_linear_5_2)"/>
<path d="M58.3 79L60.1 75.5L66.6 77.3L68.6 74.2L73.7 75.5L76.4 72L81.3 73.8L58.3 79Z" fill="url(#paint7_linear_5_2)"/>
<path d="M75.2 45.6L80.3 46.6L82.4 44.3L75.2 45.6Z" fill="url(#paint8_linear_5_2)"/>
<path d="M68.5 65.9C68.8 67.2 68.6 68.4 67.9 69.4C67.2 70.4 66 71 64.3 71.4C62.6 71.8 61.3 71.6 60.2 71C59.2 70.4 58.5 69.4 58.2 68.1L56.3 59.4C56 58.1 56.2 56.9 56.9 55.9C57.6 54.9 58.8 54.3 60.5 53.9C62.2 53.5 63.5 53.7 64.6 54.3C65.6 54.9 66.3 55.9 66.6 57.2L68.5 65.9ZM63 58.2C62.8 57.4 62.2 57.1 61.3 57.3C60.3 57.5 59.9 58 60.1 58.8L61.9 67.1C62.1 67.9 62.6 68.2 63.6 68C64.6 67.8 65 67.3 64.8 66.5L63 58.2Z" fill="url(#paint9_linear_5_2)"/>
<path d="M78.8 50.3L82.4 67.3L78.9 68L75.4 62.7C75 62.1 74.6 61.5 74.3 61C73.9 60.4 73.7 60 73.4 59.6C73.2 59.2 73 58.9 72.8 58.6C72.6 58.3 72.5 58.1 72.4 57.9C72.3 57.7 72.2 57.6 72.2 57.6C72.9 58.7 73.6 61 74.3 64.5L75.3 69L71.7 69.8L68.1 52.8L71.7 52L75 57C76.6 59.4 77.6 61.1 78.1 62.2C77.4 60.8 76.7 58.5 76 55.3L75.1 51L78.8 50.3Z" fill="url(#paint10_linear_5_2)"/>
<path d="M90 47.9C91.7 47.5 93 47.7 94.1 48.3C95.2 48.9 95.8 49.9 96.1 51.2L97.8 59.4C98.1 60.7 97.9 61.9 97.2 62.9C96.5 63.9 95.3 64.5 93.6 64.9L88.5 66L84.9 49L90 47.9ZM93 61.7C94 61.5 94.4 61 94.2 60.2L92.4 52C92.2 51.2 91.6 50.9 90.7 51.1L89.3 51.4L91.5 62L93 61.7Z" fill="url(#paint11_linear_5_2)"/>
<path d="M109.6 61.4L101 63.2L97.4 46.2L106 44.4L106.7 47.6L101.8 48.6L102.6 52.2L106.9 51.3L107.6 54.5L103.3 55.4L104.1 59.2L109 58.2L109.6 61.4Z" fill="url(#paint12_linear_5_2)"/>
<path d="M120.1 52.8L120.5 54.8C120.8 56.1 120.6 57.3 119.9 58.3C119.2 59.3 118 59.9 116.3 60.3C114.6 60.7 113.3 60.5 112.2 59.9C111.2 59.3 110.5 58.3 110.2 57L108.3 48.3C108 47 108.2 45.8 108.9 44.8C109.6 43.8 110.8 43.2 112.5 42.8C114.2 42.4 115.5 42.6 116.6 43.2C117.7 43.8 118.3 44.8 118.6 46.1L119 48.1L115.3 48.9L114.9 47.1C114.7 46.3 114.1 46 113.2 46.2C112.2 46.4 111.8 46.9 112 47.7L113.8 56C114 56.8 114.5 57.1 115.5 56.9C116.5 56.7 116.9 56.2 116.7 55.4L116.3 53.6L120.1 52.8Z" fill="url(#paint13_linear_5_2)"/>
<path d="M130.4 57L125.5 49.8L127.2 57.7L123.5 58.5L119.9 41.5L123.6 40.7L125.2 48.2L126.7 40.1L130.7 39.2L128.9 48.1L134.6 56L130.4 57Z" fill="url(#paint14_linear_5_2)"/>
</g>
<defs>
<linearGradient id="paint0_linear_5_2" x1="65.1434" y1="40.1334" x2="65.2225" y2="40.1895" gradientUnits="userSpaceOnUse">
<stop offset="0.00534759" stop-color="#EE5913"/>
<stop offset="0.2365" stop-color="#E64D12"/>
<stop offset="0.65" stop-color="#D22E11"/>
<stop offset="1" stop-color="#BE0F0F"/>
</linearGradient>
<linearGradient id="paint1_linear_5_2" x1="57.2561" y1="21.9301" x2="121.746" y2="21.9301" gradientUnits="userSpaceOnUse">
<stop offset="0.00534759" stop-color="#EE5913"/>
<stop offset="1" stop-color="#BE0F0F"/>
</linearGradient>
<linearGradient id="paint2_linear_5_2" x1="1.0508" y1="40.9657" x2="33.386" y2="40.9657" gradientUnits="userSpaceOnUse">
<stop offset="0.00534759" stop-color="#EE5913"/>
<stop offset="1" stop-color="#BE0F0F"/>
</linearGradient>
<linearGradient id="paint3_linear_5_2" x1="-7.58922e-07" y1="37.7507" x2="52.1071" y2="37.7507" gradientUnits="userSpaceOnUse">
<stop offset="0.00534759" stop-color="#EE5913"/>
<stop offset="1" stop-color="#BE0F0F"/>
</linearGradient>
<linearGradient id="paint4_linear_5_2" x1="50.5181" y1="55.5033" x2="209.649" y2="70.6337" gradientUnits="userSpaceOnUse">
<stop offset="0.00534759" stop-color="#EE5913"/>
<stop offset="0.2365" stop-color="#E64D12"/>
<stop offset="0.65" stop-color="#D22E11"/>
<stop offset="1" stop-color="#BE0F0F"/>
</linearGradient>
<linearGradient id="paint5_linear_5_2" x1="50.2538" y1="58.2833" x2="209.384" y2="73.4137" gradientUnits="userSpaceOnUse">
<stop offset="0.00534759" stop-color="#EE5913"/>
<stop offset="0.2365" stop-color="#E64D12"/>
<stop offset="0.65" stop-color="#D22E11"/>
<stop offset="1" stop-color="#BE0F0F"/>
</linearGradient>
<linearGradient id="paint6_linear_5_2" x1="51.355" y1="46.7011" x2="210.485" y2="61.8315" gradientUnits="userSpaceOnUse">
<stop offset="0.00534759" stop-color="#EE5913"/>
<stop offset="0.2365" stop-color="#E64D12"/>
<stop offset="0.65" stop-color="#D22E11"/>
<stop offset="1" stop-color="#BE0F0F"/>
</linearGradient>
<linearGradient id="paint7_linear_5_2" x1="48.7832" y1="73.7498" x2="207.914" y2="88.8803" gradientUnits="userSpaceOnUse">
<stop offset="0.00534759" stop-color="#EE5913"/>
<stop offset="0.2365" stop-color="#E64D12"/>
<stop offset="0.65" stop-color="#D22E11"/>
<stop offset="1" stop-color="#BE0F0F"/>
</linearGradient>
<linearGradient id="paint8_linear_5_2" x1="51.7408" y1="42.6441" x2="210.871" y2="57.7745" gradientUnits="userSpaceOnUse">
<stop offset="0.00534759" stop-color="#EE5913"/>
<stop offset="0.2365" stop-color="#E64D12"/>
<stop offset="0.65" stop-color="#D22E11"/>
<stop offset="1" stop-color="#BE0F0F"/>
</linearGradient>
<linearGradient id="paint9_linear_5_2" x1="49.9529" y1="61.4479" x2="209.083" y2="76.5784" gradientUnits="userSpaceOnUse">
<stop offset="0.00534759" stop-color="#EE5913"/>
<stop offset="0.2365" stop-color="#E64D12"/>
<stop offset="0.65" stop-color="#D22E11"/>
<stop offset="1" stop-color="#BE0F0F"/>
</linearGradient>
<linearGradient id="paint10_linear_5_2" x1="50.3234" y1="57.5515" x2="209.454" y2="72.6819" gradientUnits="userSpaceOnUse">
<stop offset="0.00534759" stop-color="#EE5913"/>
<stop offset="0.2365" stop-color="#E64D12"/>
<stop offset="0.65" stop-color="#D22E11"/>
<stop offset="1" stop-color="#BE0F0F"/>
</linearGradient>
<linearGradient id="paint11_linear_5_2" x1="50.7512" y1="53.0522" x2="209.882" y2="68.1826" gradientUnits="userSpaceOnUse">
<stop offset="0.00534759" stop-color="#EE5913"/>
<stop offset="0.2365" stop-color="#E64D12"/>
<stop offset="0.65" stop-color="#D22E11"/>
<stop offset="1" stop-color="#BE0F0F"/>
</linearGradient>
<linearGradient id="paint12_linear_5_2" x1="51.1451" y1="48.909" x2="210.276" y2="64.0394" gradientUnits="userSpaceOnUse">
<stop offset="0.00534759" stop-color="#EE5913"/>
<stop offset="0.2365" stop-color="#E64D12"/>
<stop offset="0.65" stop-color="#D22E11"/>
<stop offset="1" stop-color="#BE0F0F"/>
</linearGradient>
<linearGradient id="paint13_linear_5_2" x1="51.4648" y1="45.5466" x2="210.595" y2="60.677" gradientUnits="userSpaceOnUse">
<stop offset="0.00534759" stop-color="#EE5913"/>
<stop offset="0.2365" stop-color="#E64D12"/>
<stop offset="0.65" stop-color="#D22E11"/>
<stop offset="1" stop-color="#BE0F0F"/>
</linearGradient>
<linearGradient id="paint14_linear_5_2" x1="51.8317" y1="41.6875" x2="210.962" y2="56.818" gradientUnits="userSpaceOnUse">
<stop offset="0.00534759" stop-color="#EE5913"/>
<stop offset="0.2365" stop-color="#E64D12"/>
<stop offset="0.65" stop-color="#D22E11"/>
<stop offset="1" stop-color="#BE0F0F"/>
</linearGradient>
<clipPath id="clip0_5_2">
<rect width="138.4" height="79" fill="white"/>
</clipPath>
</defs>
</svg>
